<svg width="900" height="600" xmlns="http://www.w3.org/2000/svg"><g fill-rule="nonzero" fill="none"><path fill="#123FA3" d="M0 0v600h900V0z"/><path d="M452.025 104.558l5.013 16.047 15.84.13c2.051.017 2.9 2.811 1.252 4.114l-12.744 10.048 4.777 16.127c.619 2.085-1.607 3.816-3.276 2.54l-12.888-9.836-12.886 9.837c-1.667 1.273-3.896-.454-3.276-2.542l4.777-16.126-12.744-10.049c-1.65-1.3-.8-4.096 1.253-4.112l15.84-.131 5.012-16.047c.648-2.077 3.4-2.077 4.05 0zm0 344.001l5.013 16.046 15.84.132c2.051.017 2.9 2.81 1.252 4.113l-12.744 10.047 4.777 16.126c.619 2.086-1.607 3.816-3.276 2.542l-12.888-9.836-12.886 9.836c-1.667 1.274-3.896-.454-3.276-2.542l4.777-16.126-12.744-10.047c-1.65-1.302-.8-4.097 1.253-4.114l15.84-.131 5.012-16.046c.648-2.079 3.4-2.079 4.05 0zm162-172.001l5.013 16.046 15.84.13c2.051.018 2.9 2.812 1.252 4.115l-12.744 10.048 4.777 16.127c.619 2.085-1.607 3.816-3.277 2.54L612 315.728l-12.887 9.837c-1.667 1.273-3.896-.454-3.276-2.543l4.777-16.125-12.744-10.049c-1.65-1.302-.8-4.097 1.253-4.113l15.84-.131 5.012-16.046c.647-2.076 3.4-2.076 4.05 0zm-325-.001l5.013 16.046 15.84.131c2.051.017 2.9 2.811 1.252 4.114l-12.744 10.048 4.777 16.128c.619 2.085-1.607 3.816-3.277 2.54L287 315.729l-12.887 9.837c-1.667 1.273-3.896-.454-3.276-2.543l4.777-16.126-12.744-10.048c-1.65-1.303-.8-4.097 1.253-4.114l15.84-.13 5.012-16.047c.649-2.076 3.403-2.076 4.05 0zm24-89.999l5.012 16.046 15.841.132c2.052.017 2.9 2.811 1.252 4.113l-12.744 10.048 4.778 16.126c.617 2.086-1.608 3.816-3.277 2.542L311 225.727l-12.887 9.838c-1.667 1.273-3.895-.454-3.276-2.542l4.777-16.126-12.743-10.048c-1.65-1.302-.801-4.096 1.252-4.113l15.839-.13 5.013-16.048c.649-2.077 3.4-2.077 4.05 0zm282 172l5.012 16.045 15.84.131c2.052.018 2.902 2.812 1.253 4.113l-12.744 10.049 4.777 16.126c.619 2.09-1.606 3.816-3.276 2.543L593 397.727l-12.887 9.837c-1.667 1.274-3.895-.453-3.276-2.542l4.777-16.126-12.743-10.049c-1.65-1.302-.801-4.096 1.252-4.113l15.84-.13 5.012-16.048c.65-2.075 3.402-2.075 4.05 0v.001zm-59-234.001l5.013 16.046 15.84.131c2.052.017 2.9 2.811 1.252 4.114l-12.744 10.048 4.778 16.128c.618 2.085-1.608 3.816-3.278 2.54L534 163.729l-12.888 9.837c-1.667 1.273-3.895-.454-3.276-2.542l4.778-16.127-12.744-10.048c-1.65-1.303-.8-4.097 1.253-4.113l15.84-.132 5.012-16.046c.648-2.076 3.399-2.076 4.05 0zm-163 297.002l5.012 16.045 15.84.132c2.052.017 2.902 2.81 1.253 4.112l-12.745 10.048 4.778 16.127c.619 2.086-1.606 3.816-3.276 2.542L371 460.728l-12.887 9.837c-1.668 1.272-3.895-.454-3.276-2.542l4.778-16.126-12.745-10.048c-1.65-1.303-.8-4.097 1.253-4.114l15.84-.13 5.012-16.045c.649-2.08 3.403-2.08 4.05-.001zm217.95-235l-5.012 16.045-15.84.132c-2.052.017-2.902 2.811-1.253 4.113l12.744 10.048-4.777 16.126c-.619 2.086 1.607 3.816 3.276 2.542L593 225.727l12.887 9.838c1.667 1.273 3.895-.454 3.276-2.542l-4.777-16.126 12.743-10.048c1.65-1.302.801-4.096-1.252-4.113l-15.84-.13-5.012-16.048c-.648-2.077-3.4-2.077-4.05 0zm-282 171.998l-5.013 16.046-15.84.131c-2.051.018-2.9 2.812-1.252 4.113l12.744 10.049-4.778 16.126c-.618 2.09 1.608 3.816 3.277 2.543L311 397.727l12.887 9.837c1.667 1.274 3.895-.453 3.276-2.542l-4.778-16.126 12.745-10.049c1.649-1.302.8-4.096-1.253-4.113l-15.84-.13-5.012-16.048c-.65-2.075-3.401-2.075-4.049 0v.001zm60-234l-5.012 16.046-15.84.131c-2.052.017-2.902 2.811-1.253 4.114l12.745 10.048-4.778 16.128c-.618 2.085 1.608 3.816 3.277 2.54L371 163.729l12.887 9.837c1.668 1.273 3.895-.454 3.276-2.542l-4.778-16.127 12.744-10.048c1.65-1.303.8-4.097-1.252-4.113l-15.84-.132-5.012-16.046c-.65-2.076-3.401-2.076-4.05 0zm163 297.002l-5.012 16.045-15.84.132c-2.052.017-2.902 2.81-1.253 4.112l12.744 10.048-4.778 16.127c-.618 2.086 1.609 3.816 3.277 2.542l12.886-9.837 12.887 9.837c1.669 1.272 3.895-.454 3.277-2.542l-4.778-16.126 12.744-10.048c1.65-1.303.8-4.097-1.252-4.114l-15.84-.13-5.012-16.045c-.65-2.08-3.402-2.08-4.05-.001z" fill="#F6D237"/></g></svg>