<svg width="975" height="650" xmlns="http://www.w3.org/2000/svg"><g fill-rule="nonzero" fill="none"><path fill="#B22234" d="M0 0h975v650H0z"/><path d="M0 75.167h975m0 100H0m0 100h975m0 100H0m0 100h975m0 100H0" stroke="#FFF" stroke-width="50" fill="#000"/><path fill="#3C3B6E" d="M0 0h494v350H0z"/><g fill="#FFF"><path d="M41.167 15l11.755 36.18-30.776-22.36h38.042L29.41 51.18zM41.167 85l11.755 36.18-30.776-22.36h38.042L29.41 121.18zM41.167 155l11.755 36.18-30.776-22.36h38.042L29.41 191.18zM41.167 225l11.755 36.18-30.776-22.36h38.042L29.41 261.18z"/><g><path d="M41.167 295l11.755 36.18-30.776-22.36h38.042L29.41 331.18z"/></g><g><path d="M82.333 50L94.09 86.18 63.312 63.82h38.043L70.578 86.18zM82.333 120l11.756 36.18-30.777-22.36h38.043l-30.777 22.36zM82.333 190l11.756 36.18-30.777-22.36h38.043l-30.777 22.36zM82.333 260l11.756 36.18-30.777-22.36h38.043l-30.777 22.36z"/></g><g><path d="M123.5 15l11.756 36.18-30.777-22.36h38.042l-30.777 22.36zM123.5 85l11.756 36.18-30.777-22.36h38.042l-30.777 22.36zM123.5 155l11.756 36.18-30.777-22.36h38.042l-30.777 22.36zM123.5 225l11.756 36.18-30.777-22.36h38.042l-30.777 22.36z"/><g><path d="M123.5 295l11.756 36.18-30.777-22.36h38.042l-30.777 22.36z"/></g><g><path d="M164.667 50l11.755 36.18-30.776-22.36h38.042L152.91 86.18zM164.667 120l11.755 36.18-30.776-22.36h38.042l-30.777 22.36zM164.667 190l11.755 36.18-30.776-22.36h38.042l-30.777 22.36zM164.667 260l11.755 36.18-30.776-22.36h38.042l-30.777 22.36z"/></g></g><g><path d="M205.833 15l11.756 36.18-30.777-22.36h38.043l-30.777 22.36zM205.833 85l11.756 36.18-30.777-22.36h38.043l-30.777 22.36zM205.833 155l11.756 36.18-30.777-22.36h38.043l-30.777 22.36zM205.833 225l11.756 36.18-30.777-22.36h38.043l-30.777 22.36z"/><g><path d="M205.833 295l11.756 36.18-30.777-22.36h38.043l-30.777 22.36z"/></g><g><path d="M247 50l11.756 36.18-30.777-22.36h38.042l-30.777 22.36zM247 120l11.756 36.18-30.777-22.36h38.042l-30.777 22.36zM247 190l11.756 36.18-30.777-22.36h38.042l-30.777 22.36zM247 260l11.756 36.18-30.777-22.36h38.042l-30.777 22.36z"/></g><g><path d="M288.167 15l11.755 36.18-30.776-22.36h38.042L276.41 51.18zM288.167 85l11.755 36.18-30.776-22.36h38.042l-30.777 22.36zM288.167 155l11.755 36.18-30.776-22.36h38.042l-30.777 22.36zM288.167 225l11.755 36.18-30.776-22.36h38.042l-30.777 22.36z"/><g><path d="M288.167 295l11.755 36.18-30.776-22.36h38.042l-30.777 22.36z"/></g><g><path d="M329.333 50l11.756 36.18-30.777-22.36h38.043l-30.777 22.36zM329.333 120l11.756 36.18-30.777-22.36h38.043l-30.777 22.36zM329.333 190l11.756 36.18-30.777-22.36h38.043l-30.777 22.36zM329.333 260l11.756 36.18-30.777-22.36h38.043l-30.777 22.36z"/></g></g></g><g><path d="M370.5 15l11.756 36.18-30.777-22.36h38.042l-30.777 22.36zM370.5 85l11.756 36.18-30.777-22.36h38.042l-30.777 22.36zM370.5 155l11.756 36.18-30.777-22.36h38.042l-30.777 22.36zM370.5 225l11.756 36.18-30.777-22.36h38.042l-30.777 22.36z"/><g><path d="M370.5 295l11.756 36.18-30.777-22.36h38.042l-30.777 22.36z"/></g><g><path d="M411.667 50l11.755 36.18-30.776-22.36h38.042L399.91 86.18zM411.667 120l11.755 36.18-30.776-22.36h38.042l-30.777 22.36zM411.667 190l11.755 36.18-30.776-22.36h38.042l-30.777 22.36zM411.667 260l11.755 36.18-30.776-22.36h38.042l-30.777 22.36z"/></g></g><g><path d="M452.833 15l11.756 36.18-30.777-22.36h38.043l-30.777 22.36zM452.833 85l11.756 36.18-30.777-22.36h38.043l-30.777 22.36zM452.833 155l11.756 36.18-30.777-22.36h38.043l-30.777 22.36zM452.833 225l11.756 36.18-30.777-22.36h38.043l-30.777 22.36z"/><g><path d="M452.833 295l11.756 36.18-30.777-22.36h38.043l-30.777 22.36z"/></g></g></g></g></svg>